<mxfile host="app.diagrams.net" modified="2024-03-25T16:12:38.198Z" agent="Mozilla/5.0 (Windows NT 10.0; Win64; x64) AppleWebKit/537.36 (KHTML, like Gecko) Chrome/123.0.0.0 Safari/537.36" etag="yvqiaBRttMLa4kSOPGTd" version="24.0.9" type="github">
  <diagram name="Page-1" id="m-Yi1Y9h_bWJXBjJ7MBu">
    <mxGraphModel dx="1489" dy="771" grid="1" gridSize="10" guides="1" tooltips="1" connect="1" arrows="1" fold="1" page="1" pageScale="1" pageWidth="850" pageHeight="1100" math="0" shadow="0">
      <root>
        <mxCell id="0" />
        <mxCell id="1" parent="0" />
        <mxCell id="EJ65FZZ2zoDELtPW0bEY-8" value="Pool" style="swimlane;childLayout=stackLayout;resizeParent=1;resizeParentMax=0;startSize=20;horizontal=0;horizontalStack=1;" vertex="1" parent="1">
          <mxGeometry width="850" height="1020" as="geometry" />
        </mxCell>
        <mxCell id="EJ65FZZ2zoDELtPW0bEY-10" value="Admin" style="swimlane;startSize=20;" vertex="1" parent="EJ65FZZ2zoDELtPW0bEY-8">
          <mxGeometry x="20" width="480" height="1020" as="geometry" />
        </mxCell>
        <mxCell id="EJ65FZZ2zoDELtPW0bEY-1" value="" style="ellipse;whiteSpace=wrap;html=1;aspect=fixed;fillColor=#000000;" vertex="1" parent="EJ65FZZ2zoDELtPW0bEY-10">
          <mxGeometry x="171" y="30" width="18" height="18" as="geometry" />
        </mxCell>
        <mxCell id="EJ65FZZ2zoDELtPW0bEY-3" value="Đăng nhập" style="rounded=1;whiteSpace=wrap;html=1;" vertex="1" parent="EJ65FZZ2zoDELtPW0bEY-10">
          <mxGeometry x="120" y="70" width="120" height="30" as="geometry" />
        </mxCell>
        <mxCell id="EJ65FZZ2zoDELtPW0bEY-2" style="edgeStyle=orthogonalEdgeStyle;rounded=0;orthogonalLoop=1;jettySize=auto;html=1;exitX=0.5;exitY=1;exitDx=0;exitDy=0;" edge="1" parent="EJ65FZZ2zoDELtPW0bEY-10" source="EJ65FZZ2zoDELtPW0bEY-1" target="EJ65FZZ2zoDELtPW0bEY-3">
          <mxGeometry relative="1" as="geometry">
            <mxPoint x="180" y="120" as="targetPoint" />
          </mxGeometry>
        </mxCell>
        <mxCell id="EJ65FZZ2zoDELtPW0bEY-14" value="" style="rhombus;whiteSpace=wrap;html=1;" vertex="1" parent="EJ65FZZ2zoDELtPW0bEY-10">
          <mxGeometry x="351.5" y="130" width="37" height="20" as="geometry" />
        </mxCell>
        <mxCell id="EJ65FZZ2zoDELtPW0bEY-16" value="Xem danh sách các yêu cầu đăng kí khách sạn mới" style="rounded=1;whiteSpace=wrap;html=1;" vertex="1" parent="EJ65FZZ2zoDELtPW0bEY-10">
          <mxGeometry x="200" y="185" width="120" height="50" as="geometry" />
        </mxCell>
        <mxCell id="EJ65FZZ2zoDELtPW0bEY-15" style="rounded=0;orthogonalLoop=1;jettySize=auto;html=1;exitX=0.5;exitY=1;exitDx=0;exitDy=0;entryX=1;entryY=0.5;entryDx=0;entryDy=0;edgeStyle=orthogonalEdgeStyle;" edge="1" parent="EJ65FZZ2zoDELtPW0bEY-10" source="EJ65FZZ2zoDELtPW0bEY-14" target="EJ65FZZ2zoDELtPW0bEY-16">
          <mxGeometry relative="1" as="geometry">
            <mxPoint x="120" y="200" as="targetPoint" />
            <Array as="points">
              <mxPoint x="370" y="210" />
            </Array>
          </mxGeometry>
        </mxCell>
        <mxCell id="EJ65FZZ2zoDELtPW0bEY-23" value="Phê duyệt các khách sạn mới" style="rounded=1;whiteSpace=wrap;html=1;" vertex="1" parent="EJ65FZZ2zoDELtPW0bEY-10">
          <mxGeometry x="200" y="280" width="120" height="50" as="geometry" />
        </mxCell>
        <mxCell id="EJ65FZZ2zoDELtPW0bEY-29" value="Xem danh sách các khách hàng" style="rounded=1;whiteSpace=wrap;html=1;" vertex="1" parent="EJ65FZZ2zoDELtPW0bEY-10">
          <mxGeometry x="200" y="400" width="120" height="50" as="geometry" />
        </mxCell>
        <mxCell id="EJ65FZZ2zoDELtPW0bEY-35" value="" style="rhombus;whiteSpace=wrap;html=1;" vertex="1" parent="EJ65FZZ2zoDELtPW0bEY-10">
          <mxGeometry x="351.5" y="350" width="37" height="20" as="geometry" />
        </mxCell>
        <mxCell id="EJ65FZZ2zoDELtPW0bEY-37" style="rounded=0;orthogonalLoop=1;jettySize=auto;html=1;exitX=0.5;exitY=1;exitDx=0;exitDy=0;entryX=1;entryY=0.5;entryDx=0;entryDy=0;edgeStyle=orthogonalEdgeStyle;" edge="1" parent="EJ65FZZ2zoDELtPW0bEY-10" source="EJ65FZZ2zoDELtPW0bEY-35">
          <mxGeometry relative="1" as="geometry">
            <mxPoint x="320" y="425.0000000000001" as="targetPoint" />
            <Array as="points">
              <mxPoint x="370" y="425" />
            </Array>
          </mxGeometry>
        </mxCell>
        <mxCell id="EJ65FZZ2zoDELtPW0bEY-38" value="Quản lý khách hàng (CRUD)" style="rounded=1;whiteSpace=wrap;html=1;" vertex="1" parent="EJ65FZZ2zoDELtPW0bEY-10">
          <mxGeometry x="200" y="500" width="120" height="50" as="geometry" />
        </mxCell>
        <mxCell id="EJ65FZZ2zoDELtPW0bEY-11" value="Hệ thống" style="swimlane;startSize=20;" vertex="1" parent="EJ65FZZ2zoDELtPW0bEY-8">
          <mxGeometry x="500" width="350" height="1020" as="geometry" />
        </mxCell>
        <mxCell id="EJ65FZZ2zoDELtPW0bEY-5" value="Xác thực" style="rounded=1;whiteSpace=wrap;html=1;" vertex="1" parent="EJ65FZZ2zoDELtPW0bEY-11">
          <mxGeometry x="115" y="70" width="120" height="30" as="geometry" />
        </mxCell>
        <mxCell id="EJ65FZZ2zoDELtPW0bEY-19" value="Hiển thị danh sách yêu cầu" style="rounded=1;whiteSpace=wrap;html=1;" vertex="1" parent="EJ65FZZ2zoDELtPW0bEY-11">
          <mxGeometry x="115" y="195" width="120" height="40" as="geometry" />
        </mxCell>
        <mxCell id="EJ65FZZ2zoDELtPW0bEY-25" value="Lưu trữ, triển khai thông tin khách sạn mới lên nền tảng" style="rounded=1;whiteSpace=wrap;html=1;" vertex="1" parent="EJ65FZZ2zoDELtPW0bEY-11">
          <mxGeometry x="115" y="270" width="120" height="70" as="geometry" />
        </mxCell>
        <mxCell id="EJ65FZZ2zoDELtPW0bEY-42" value="Hiển thị danh sách khách hàng" style="rounded=1;whiteSpace=wrap;html=1;" vertex="1" parent="EJ65FZZ2zoDELtPW0bEY-11">
          <mxGeometry x="115" y="407.44827586206895" width="120" height="60" as="geometry" />
        </mxCell>
        <mxCell id="EJ65FZZ2zoDELtPW0bEY-46" value="Xử lý yêu cầu" style="rounded=1;whiteSpace=wrap;html=1;" vertex="1" parent="EJ65FZZ2zoDELtPW0bEY-11">
          <mxGeometry x="115" y="510" width="120" height="30" as="geometry" />
        </mxCell>
        <mxCell id="EJ65FZZ2zoDELtPW0bEY-56" value="&lt;span id=&quot;selected_text&quot;&gt;&lt;/span&gt;Xem danh sách các khách sạn" style="rounded=1;whiteSpace=wrap;html=1;" vertex="1" parent="EJ65FZZ2zoDELtPW0bEY-11">
          <mxGeometry x="-280" y="610" width="120" height="50" as="geometry" />
        </mxCell>
        <mxCell id="EJ65FZZ2zoDELtPW0bEY-57" value="" style="rhombus;whiteSpace=wrap;html=1;" vertex="1" parent="EJ65FZZ2zoDELtPW0bEY-11">
          <mxGeometry x="-128.5" y="560" width="37" height="20" as="geometry" />
        </mxCell>
        <mxCell id="EJ65FZZ2zoDELtPW0bEY-58" style="rounded=0;orthogonalLoop=1;jettySize=auto;html=1;exitX=0.5;exitY=1;exitDx=0;exitDy=0;entryX=1;entryY=0.5;entryDx=0;entryDy=0;edgeStyle=orthogonalEdgeStyle;" edge="1" parent="EJ65FZZ2zoDELtPW0bEY-11" source="EJ65FZZ2zoDELtPW0bEY-57">
          <mxGeometry relative="1" as="geometry">
            <mxPoint x="-160" y="635.0000000000001" as="targetPoint" />
            <Array as="points">
              <mxPoint x="-110" y="635" />
            </Array>
          </mxGeometry>
        </mxCell>
        <mxCell id="EJ65FZZ2zoDELtPW0bEY-59" value="Quản lý &lt;span id=&quot;selected_text&quot;&gt;&lt;/span&gt;khách sạn (CRUD)" style="rounded=1;whiteSpace=wrap;html=1;" vertex="1" parent="EJ65FZZ2zoDELtPW0bEY-11">
          <mxGeometry x="-280" y="710" width="120" height="50" as="geometry" />
        </mxCell>
        <mxCell id="EJ65FZZ2zoDELtPW0bEY-60" value="Hiển thị danh sách khách sạn" style="rounded=1;whiteSpace=wrap;html=1;" vertex="1" parent="EJ65FZZ2zoDELtPW0bEY-11">
          <mxGeometry x="115" y="617.448275862069" width="120" height="60" as="geometry" />
        </mxCell>
        <mxCell id="EJ65FZZ2zoDELtPW0bEY-61" value="Xử lý yêu cầu" style="rounded=1;whiteSpace=wrap;html=1;" vertex="1" parent="EJ65FZZ2zoDELtPW0bEY-11">
          <mxGeometry x="115" y="720" width="120" height="30" as="geometry" />
        </mxCell>
        <mxCell id="EJ65FZZ2zoDELtPW0bEY-62" style="edgeStyle=orthogonalEdgeStyle;rounded=0;orthogonalLoop=1;jettySize=auto;html=1;exitX=1;exitY=0.75;exitDx=0;exitDy=0;" edge="1" parent="EJ65FZZ2zoDELtPW0bEY-11" source="EJ65FZZ2zoDELtPW0bEY-56" target="EJ65FZZ2zoDELtPW0bEY-60">
          <mxGeometry relative="1" as="geometry">
            <mxPoint x="150" y="647.448275862069" as="targetPoint" />
          </mxGeometry>
        </mxCell>
        <mxCell id="EJ65FZZ2zoDELtPW0bEY-63" style="edgeStyle=orthogonalEdgeStyle;rounded=0;orthogonalLoop=1;jettySize=auto;html=1;exitX=0.5;exitY=1;exitDx=0;exitDy=0;entryX=0.5;entryY=0;entryDx=0;entryDy=0;" edge="1" parent="EJ65FZZ2zoDELtPW0bEY-11" source="EJ65FZZ2zoDELtPW0bEY-60" target="EJ65FZZ2zoDELtPW0bEY-59">
          <mxGeometry relative="1" as="geometry">
            <Array as="points">
              <mxPoint x="175" y="690" />
              <mxPoint x="-220" y="690" />
            </Array>
          </mxGeometry>
        </mxCell>
        <mxCell id="EJ65FZZ2zoDELtPW0bEY-64" style="edgeStyle=orthogonalEdgeStyle;rounded=0;orthogonalLoop=1;jettySize=auto;html=1;exitX=1;exitY=0.5;exitDx=0;exitDy=0;" edge="1" parent="EJ65FZZ2zoDELtPW0bEY-11" source="EJ65FZZ2zoDELtPW0bEY-59" target="EJ65FZZ2zoDELtPW0bEY-61">
          <mxGeometry relative="1" as="geometry">
            <mxPoint x="160" y="735.0344827586207" as="targetPoint" />
          </mxGeometry>
        </mxCell>
        <mxCell id="EJ65FZZ2zoDELtPW0bEY-67" value="&lt;span id=&quot;selected_text&quot;&gt;&lt;/span&gt;Gửi thông báo tới người dùng" style="rounded=1;whiteSpace=wrap;html=1;" vertex="1" parent="EJ65FZZ2zoDELtPW0bEY-11">
          <mxGeometry x="-280" y="820" width="120" height="50" as="geometry" />
        </mxCell>
        <mxCell id="EJ65FZZ2zoDELtPW0bEY-68" value="" style="rhombus;whiteSpace=wrap;html=1;" vertex="1" parent="EJ65FZZ2zoDELtPW0bEY-11">
          <mxGeometry x="-128.5" y="770" width="37" height="20" as="geometry" />
        </mxCell>
        <mxCell id="EJ65FZZ2zoDELtPW0bEY-69" style="rounded=0;orthogonalLoop=1;jettySize=auto;html=1;exitX=0.5;exitY=1;exitDx=0;exitDy=0;entryX=1;entryY=0.5;entryDx=0;entryDy=0;edgeStyle=orthogonalEdgeStyle;" edge="1" parent="EJ65FZZ2zoDELtPW0bEY-11" source="EJ65FZZ2zoDELtPW0bEY-68">
          <mxGeometry relative="1" as="geometry">
            <mxPoint x="-160" y="845.0000000000001" as="targetPoint" />
            <Array as="points">
              <mxPoint x="-110" y="845" />
            </Array>
          </mxGeometry>
        </mxCell>
        <mxCell id="EJ65FZZ2zoDELtPW0bEY-71" value="&lt;span id=&quot;selected_text&quot;&gt;&lt;/span&gt;Thực hiện gửi thông báo tới kênh tương ứng" style="rounded=1;whiteSpace=wrap;html=1;" vertex="1" parent="EJ65FZZ2zoDELtPW0bEY-11">
          <mxGeometry x="115" y="827.45" width="140" height="60" as="geometry" />
        </mxCell>
        <mxCell id="EJ65FZZ2zoDELtPW0bEY-73" style="edgeStyle=orthogonalEdgeStyle;rounded=0;orthogonalLoop=1;jettySize=auto;html=1;exitX=1;exitY=0.75;exitDx=0;exitDy=0;" edge="1" parent="EJ65FZZ2zoDELtPW0bEY-11" source="EJ65FZZ2zoDELtPW0bEY-67" target="EJ65FZZ2zoDELtPW0bEY-71">
          <mxGeometry relative="1" as="geometry">
            <mxPoint x="150" y="857.448275862069" as="targetPoint" />
          </mxGeometry>
        </mxCell>
        <mxCell id="EJ65FZZ2zoDELtPW0bEY-4" style="edgeStyle=orthogonalEdgeStyle;rounded=0;orthogonalLoop=1;jettySize=auto;html=1;exitX=1;exitY=0.5;exitDx=0;exitDy=0;entryX=0;entryY=0.5;entryDx=0;entryDy=0;" edge="1" parent="EJ65FZZ2zoDELtPW0bEY-8" source="EJ65FZZ2zoDELtPW0bEY-3" target="EJ65FZZ2zoDELtPW0bEY-5">
          <mxGeometry relative="1" as="geometry">
            <mxPoint x="421.5" y="105" as="targetPoint" />
          </mxGeometry>
        </mxCell>
        <mxCell id="EJ65FZZ2zoDELtPW0bEY-13" style="rounded=0;orthogonalLoop=1;jettySize=auto;html=1;exitX=0.5;exitY=1;exitDx=0;exitDy=0;entryX=1;entryY=0.5;entryDx=0;entryDy=0;" edge="1" parent="EJ65FZZ2zoDELtPW0bEY-8" source="EJ65FZZ2zoDELtPW0bEY-5" target="EJ65FZZ2zoDELtPW0bEY-14">
          <mxGeometry relative="1" as="geometry">
            <mxPoint x="130" y="160" as="targetPoint" />
          </mxGeometry>
        </mxCell>
        <mxCell id="EJ65FZZ2zoDELtPW0bEY-18" style="edgeStyle=orthogonalEdgeStyle;rounded=0;orthogonalLoop=1;jettySize=auto;html=1;exitX=1;exitY=0.75;exitDx=0;exitDy=0;" edge="1" parent="EJ65FZZ2zoDELtPW0bEY-8" source="EJ65FZZ2zoDELtPW0bEY-16" target="EJ65FZZ2zoDELtPW0bEY-19">
          <mxGeometry relative="1" as="geometry">
            <mxPoint x="560" y="210" as="targetPoint" />
            <Array as="points">
              <mxPoint x="340" y="215" />
            </Array>
          </mxGeometry>
        </mxCell>
        <mxCell id="EJ65FZZ2zoDELtPW0bEY-24" style="edgeStyle=orthogonalEdgeStyle;rounded=0;orthogonalLoop=1;jettySize=auto;html=1;exitX=1;exitY=0.5;exitDx=0;exitDy=0;" edge="1" parent="EJ65FZZ2zoDELtPW0bEY-8" source="EJ65FZZ2zoDELtPW0bEY-23" target="EJ65FZZ2zoDELtPW0bEY-25">
          <mxGeometry relative="1" as="geometry">
            <mxPoint x="570" y="345" as="targetPoint" />
          </mxGeometry>
        </mxCell>
        <mxCell id="EJ65FZZ2zoDELtPW0bEY-20" style="edgeStyle=orthogonalEdgeStyle;rounded=0;orthogonalLoop=1;jettySize=auto;html=1;exitX=0.5;exitY=1;exitDx=0;exitDy=0;entryX=0.5;entryY=0;entryDx=0;entryDy=0;" edge="1" parent="EJ65FZZ2zoDELtPW0bEY-8" source="EJ65FZZ2zoDELtPW0bEY-19" target="EJ65FZZ2zoDELtPW0bEY-23">
          <mxGeometry relative="1" as="geometry">
            <mxPoint x="390" y="290" as="targetPoint" />
            <Array as="points">
              <mxPoint x="675" y="258" />
              <mxPoint x="280" y="258" />
            </Array>
          </mxGeometry>
        </mxCell>
        <mxCell id="EJ65FZZ2zoDELtPW0bEY-41" style="edgeStyle=orthogonalEdgeStyle;rounded=0;orthogonalLoop=1;jettySize=auto;html=1;exitX=1;exitY=0.75;exitDx=0;exitDy=0;" edge="1" parent="EJ65FZZ2zoDELtPW0bEY-8" source="EJ65FZZ2zoDELtPW0bEY-29" target="EJ65FZZ2zoDELtPW0bEY-42">
          <mxGeometry relative="1" as="geometry">
            <mxPoint x="650" y="437.44827586206895" as="targetPoint" />
          </mxGeometry>
        </mxCell>
        <mxCell id="EJ65FZZ2zoDELtPW0bEY-44" style="edgeStyle=orthogonalEdgeStyle;rounded=0;orthogonalLoop=1;jettySize=auto;html=1;exitX=0.5;exitY=1;exitDx=0;exitDy=0;entryX=0.5;entryY=0;entryDx=0;entryDy=0;" edge="1" parent="EJ65FZZ2zoDELtPW0bEY-8" source="EJ65FZZ2zoDELtPW0bEY-42" target="EJ65FZZ2zoDELtPW0bEY-38">
          <mxGeometry relative="1" as="geometry">
            <Array as="points">
              <mxPoint x="675" y="480" />
              <mxPoint x="280" y="480" />
            </Array>
          </mxGeometry>
        </mxCell>
        <mxCell id="EJ65FZZ2zoDELtPW0bEY-45" style="edgeStyle=orthogonalEdgeStyle;rounded=0;orthogonalLoop=1;jettySize=auto;html=1;exitX=1;exitY=0.5;exitDx=0;exitDy=0;" edge="1" parent="EJ65FZZ2zoDELtPW0bEY-8" source="EJ65FZZ2zoDELtPW0bEY-38" target="EJ65FZZ2zoDELtPW0bEY-46">
          <mxGeometry relative="1" as="geometry">
            <mxPoint x="660" y="525.0344827586207" as="targetPoint" />
          </mxGeometry>
        </mxCell>
        <mxCell id="EJ65FZZ2zoDELtPW0bEY-40" value="" style="endArrow=none;html=1;rounded=0;" edge="1" parent="1">
          <mxGeometry width="50" height="50" relative="1" as="geometry">
            <mxPoint x="90" y="360" as="sourcePoint" />
            <mxPoint x="370" y="360" as="targetPoint" />
          </mxGeometry>
        </mxCell>
        <mxCell id="EJ65FZZ2zoDELtPW0bEY-65" value="" style="endArrow=none;html=1;rounded=0;entryX=0;entryY=0.5;entryDx=0;entryDy=0;" edge="1" parent="1" target="EJ65FZZ2zoDELtPW0bEY-57">
          <mxGeometry width="50" height="50" relative="1" as="geometry">
            <mxPoint x="90" y="570" as="sourcePoint" />
            <mxPoint x="510" y="500" as="targetPoint" />
          </mxGeometry>
        </mxCell>
        <mxCell id="EJ65FZZ2zoDELtPW0bEY-77" value="" style="endArrow=none;html=1;rounded=0;entryX=0;entryY=0.5;entryDx=0;entryDy=0;" edge="1" parent="1" target="EJ65FZZ2zoDELtPW0bEY-68">
          <mxGeometry width="50" height="50" relative="1" as="geometry">
            <mxPoint x="90" y="780" as="sourcePoint" />
            <mxPoint x="510" y="700" as="targetPoint" />
          </mxGeometry>
        </mxCell>
        <mxCell id="EJ65FZZ2zoDELtPW0bEY-78" value="Đăng xuất" style="rounded=1;whiteSpace=wrap;html=1;" vertex="1" parent="1">
          <mxGeometry x="30" y="950" width="120" height="40" as="geometry" />
        </mxCell>
        <mxCell id="EJ65FZZ2zoDELtPW0bEY-30" style="edgeStyle=orthogonalEdgeStyle;rounded=0;orthogonalLoop=1;jettySize=auto;html=1;exitX=0;exitY=0.5;exitDx=0;exitDy=0;" edge="1" parent="1" source="EJ65FZZ2zoDELtPW0bEY-14" target="EJ65FZZ2zoDELtPW0bEY-78">
          <mxGeometry relative="1" as="geometry">
            <mxPoint x="90" y="960" as="targetPoint" />
          </mxGeometry>
        </mxCell>
      </root>
    </mxGraphModel>
  </diagram>
</mxfile>
